<svg width="31" height="49" viewBox="0 0 31 49" fill="none" xmlns="http://www.w3.org/2000/svg">
<g clip-path="url(#clip0_2094_9486)">
<path d="M15.0728 23.13C10.6928 23.13 7.13281 19.57 7.13281 15.19C7.13281 10.81 10.6928 7.25 15.0728 7.25C19.4528 7.25 23.0128 10.81 23.0128 15.19C23.0128 19.57 19.4528 23.13 15.0728 23.13ZM15.0728 10.24C12.3428 10.24 10.1328 12.46 10.1328 15.18C10.1328 17.9 12.3528 20.12 15.0728 20.12C17.7928 20.12 20.0128 17.9 20.0128 15.18C20.0128 12.46 17.7928 10.24 15.0728 10.24Z" fill="#2E3843"/>
<path d="M15.0688 40.48C14.5788 40.48 14.1188 40.24 13.8388 39.84L8.24883 31.82C7.66883 30.99 7.05883 30.17 6.44883 29.34C4.32883 26.47 2.12883 23.49 0.928834 20C-0.831166 14.94 -0.0711658 9.93 3.04883 5.9C5.90883 2.21 10.3988 0 15.0688 0C19.7388 0 24.2288 2.21 27.0888 5.9C30.2088 9.93 30.9688 14.94 29.2188 20.01C28.0088 23.5 25.8188 26.47 23.6988 29.35C23.0888 30.18 22.4788 31 21.8988 31.83L16.3088 39.85C16.0288 40.25 15.5688 40.49 15.0788 40.49L15.0688 40.48ZM15.0688 3C11.3288 3 7.71883 4.77 5.42883 7.73C2.94883 10.94 2.35883 14.95 3.75883 19.02C4.80883 22.08 6.86883 24.86 8.85883 27.55C9.48883 28.4 10.1088 29.24 10.7088 30.1L15.0688 36.35L19.4288 30.1C20.0188 29.25 20.6488 28.4 21.2788 27.55C23.2688 24.86 25.3288 22.07 26.3788 19.02C27.7888 14.95 27.1888 10.94 24.7088 7.73C22.4188 4.77 18.8088 3 15.0688 3Z" fill="#2E3843"/>
<path d="M15.07 48.0699C14.79 48.0699 14.51 47.9899 14.27 47.8399L1.7 39.8999C1.26 39.6299 1 39.1499 1 38.6299C1 38.1099 1.26 37.6399 1.7 37.3599L5.69 34.8399C6.39 34.3999 7.31 34.6099 7.76 35.3099C8.2 36.0099 7.99 36.9399 7.29 37.3799L5.31 38.6299L15.07 44.7899L24.83 38.6299L22.85 37.3799C22.15 36.9399 21.94 36.0099 22.38 35.3099C22.82 34.6099 23.75 34.3999 24.45 34.8399L28.44 37.3599C28.88 37.6299 29.14 38.1099 29.14 38.6299C29.14 39.1499 28.88 39.6199 28.44 39.8999L15.87 47.8399C15.63 47.9899 15.35 48.0699 15.07 48.0699Z" fill="#2E3843"/>
</g>
<defs>
<clipPath id="clip0_2094_9486">
<rect width="30.13" height="48.07" fill="white"/>
</clipPath>
</defs>
</svg>
