<svg width="42" height="42" viewBox="0 0 42 42" fill="none" xmlns="http://www.w3.org/2000/svg">
<g clip-path="url(#clip0_2094_9497)">
<path d="M12.3894 39.7399C5.30941 36.5099 0.329408 29.6599 -0.000592022 22.6899C-0.050592 22.2799 0.069408 21.8899 0.329408 21.5899C0.589408 21.2899 0.969408 21.0999 1.38941 21.0599C1.64941 21.0299 1.89941 21.0599 2.12941 21.1699C2.60941 21.3899 2.93941 21.8699 2.99941 22.4499C3.24941 27.3499 5.97941 32.0299 10.4794 35.2799C11.4994 36.0199 12.5794 36.6499 13.6894 37.1499C17.3794 38.8399 21.3394 39.1399 25.1294 38.0299C25.4494 37.9099 25.8094 37.9299 26.1294 38.0699C26.5294 38.2499 26.8294 38.5999 26.9194 38.9799C27.0594 39.3599 27.0294 39.7399 26.8294 40.0899C26.6294 40.4499 26.3094 40.7099 25.9694 40.7799C21.4494 42.0799 16.7494 41.7099 12.3794 39.7199L12.3894 39.7399ZM15.7094 31.6099C9.59941 28.8199 6.98941 21.8399 9.77941 15.7299C12.5694 9.61994 19.5494 7.00994 25.6594 9.79994C31.7694 12.5899 34.3794 19.5699 31.5894 25.6799C28.7994 31.7899 21.8194 34.3999 15.7094 31.6099ZM24.4594 12.4499C19.8294 10.3399 14.5494 12.3099 12.4394 16.9399C10.3294 21.5699 12.2994 26.8499 16.9294 28.9699C21.5594 31.0899 26.8394 29.1099 28.9594 24.4799C31.0794 19.8499 29.0994 14.5699 24.4694 12.4499H24.4594ZM31.2494 37.7399C30.7394 37.5099 30.3994 37.0099 30.3594 36.4299C30.3294 35.9099 30.5394 35.4599 30.9294 35.2199C35.0394 32.4999 37.7094 27.7799 38.2394 22.2499C38.7494 16.9299 37.0394 11.9699 33.4294 8.27994C32.8694 7.68994 32.8594 6.71994 33.4094 6.18994C33.8594 5.75994 34.5594 5.63994 35.1094 5.89994C35.2594 5.96994 35.3894 6.05994 35.4994 6.16994C39.6794 10.1399 41.7594 16.0799 41.1894 22.4599C40.6294 28.6999 37.4194 34.3399 32.5994 37.5499C32.2594 37.9099 31.7594 37.9699 31.2494 37.7399ZM1.43941 16.7999C0.749408 16.4899 0.429408 15.8499 0.589408 15.1399C2.08941 9.37994 6.22941 4.54994 11.9694 1.88994C17.6194 -0.610061 23.9394 -0.630061 29.3094 1.81994C30.1294 2.18994 30.3194 3.10994 30.0294 3.74994C29.6994 4.46994 28.7594 4.79994 28.0194 4.45994C27.9494 4.42994 27.8894 4.38994 27.8194 4.34994C23.2594 2.26994 17.9294 2.32994 13.1694 4.51994C8.25941 6.90994 4.72941 11.0199 3.49941 15.8199C3.37941 16.2699 3.07941 16.6399 2.67941 16.8299C2.29941 17.0099 1.85941 16.9999 1.44941 16.8099L1.43941 16.7999Z" fill="url(#paint0_linear_2094_9497)"/>
</g>
<defs>
<linearGradient id="paint0_linear_2094_9497" x1="25.5" y1="-4" x2="-7.69094" y2="46.9941" gradientUnits="userSpaceOnUse">
<stop stop-color="#BB9A65"/>
<stop offset="1" stop-color="#BB9A65" stop-opacity="0"/>
</linearGradient>
<clipPath id="clip0_2094_9497">
<rect width="41.28" height="41.57" fill="white"/>
</clipPath>
</defs>
</svg>
