<svg width="40" height="44" viewBox="0 0 40 44" fill="none" xmlns="http://www.w3.org/2000/svg">
<path d="M21.59 30.74L38.74 9.45C38.97 9.19 39.1 8.84 39.1 8.47C39.1 7.62 38.4 6.93 37.54 6.93H31.21L33.44 4.7L33.58 4.62H33.63C34.92 4.62 35.98 3.59 35.98 2.31C35.98 1.03 34.92 0 33.63 0C32.34 0 31.28 1.04 31.28 2.31C31.28 2.38 31.3 2.44 31.3 2.51L31.24 2.66L26.97 6.93H1.56C0.699998 6.93 0 7.62 0 8.47C0 8.84 0.140001 9.19 0.360001 9.45L17.56 30.8L17.99 31.33V40.04H10.86C10.01 40.04 9.32 40.73 9.32 41.58C9.32 42.43 10.01 43.12 10.86 43.12H28.34C29.19 43.12 29.88 42.43 29.88 41.58C29.88 40.73 29.19 40.04 28.34 40.04H21.12V31.33L21.59 30.74ZM34.22 10.01L34.12 10.12L29.35 16.08H22.06L28.13 10.01H34.22ZM4.89 10.01H23.89L17.86 16.04C17.86 16.04 17.85 16.07 17.83 16.08H9.81L4.98 10.12L4.89 10.01ZM19.59 28.26L12.2 19.08H26.94L19.59 28.26Z" fill="url(#paint0_linear_2051_3695)"/>
<defs>
<linearGradient id="paint0_linear_2051_3695" x1="19.2503" y1="1.07031e-06" x2="-6.64852" y2="38.0902" gradientUnits="userSpaceOnUse">
<stop offset="0.107536" stop-color="#BB9A65"/>
<stop offset="0.906868" stop-color="#BB9A65" stop-opacity="0"/>
</linearGradient>
</defs>
</svg>
