<svg width="43" height="42" viewBox="0 0 43 42" fill="none" xmlns="http://www.w3.org/2000/svg">
<g clip-path="url(#clip0_2051_3677)">
<path d="M32.9202 1.04004C25.2902 -1.96996 16.6402 1.79004 13.6302 9.42004C13.3002 10.25 13.0602 11.1 12.8802 11.96C7.62023 12.66 3.17023 16.06 1.12023 21.02C-2.00977 28.6 1.61023 37.31 9.19023 40.44C11.0402 41.2 12.9602 41.57 14.8502 41.57C20.6902 41.57 26.2502 38.1 28.6102 32.37C28.9802 31.47 29.2602 30.54 29.4402 29.61C34.7902 28.89 39.2902 25.4 41.2902 20.33C44.3002 12.7 40.5402 4.05004 32.9102 1.04004H32.9202ZM38.5102 19.22C37.0002 23.04 33.7102 25.74 29.7402 26.51C29.7202 25.24 29.5402 23.97 29.2002 22.74C30.5002 22.49 31.7202 21.92 32.7502 21.05C36.0402 18.28 36.4602 13.36 33.6902 10.07C31.9302 7.98004 29.2602 6.97004 26.5502 7.38004C25.9402 7.47004 25.3402 7.64004 24.7702 7.87004C24.0002 8.18004 23.6402 9.06004 23.9502 9.83004C24.1902 10.41 24.7502 10.76 25.3402 10.76C25.5302 10.76 25.7202 10.72 25.9102 10.65C26.2602 10.51 26.6302 10.41 27.0002 10.35C28.6602 10.1 30.3102 10.71 31.3902 12C33.0902 14.02 32.8302 17.05 30.8102 18.75C30.0302 19.41 29.0802 19.77 28.0802 19.84C26.7502 17.28 24.6902 15.12 22.1602 13.69C21.4402 13.28 20.5202 13.54 20.1202 14.26C19.7102 14.98 19.9702 15.9 20.6902 16.3C21.9802 17.03 23.1102 18 24.0402 19.13C24.0502 19.14 24.0602 19.16 24.0702 19.17C26.8202 22.56 27.5002 27.17 25.8402 31.2C23.3402 37.25 16.3902 40.14 10.3402 37.64C4.29023 35.14 1.40023 28.19 3.90023 22.14C5.44023 18.4 8.69023 15.78 12.5902 15.02C12.6002 16.37 12.8102 17.7 13.1902 19C11.9802 19.27 10.8402 19.83 9.87023 20.64C8.28023 21.98 7.30023 23.86 7.12023 25.93C6.94023 28 7.58023 30.02 8.92023 31.62C10.4402 33.43 12.6302 34.4 14.8702 34.4C15.8702 34.4 16.8902 34.2 17.8602 33.8C18.6302 33.48 18.9902 32.61 18.6702 31.84C18.3502 31.07 17.4702 30.71 16.7102 31.03C14.7702 31.83 12.5602 31.29 11.2102 29.69C10.3902 28.71 9.99023 27.47 10.1002 26.19C10.2102 24.91 10.8102 23.76 11.7902 22.93C12.5202 22.32 13.3902 21.95 14.3202 21.84C15.5102 24.08 17.2602 26 19.4102 27.38C19.6602 27.54 19.9402 27.62 20.2202 27.62C20.7102 27.62 21.1902 27.38 21.4802 26.93C21.9302 26.23 21.7302 25.31 21.0302 24.86C19.9002 24.13 18.9102 23.22 18.1002 22.17C18.0602 22.1 18.0302 22.04 17.9802 21.98C17.4802 21.31 17.0702 20.59 16.7202 19.86C16.6802 19.73 16.6102 19.6 16.5402 19.49C15.3202 16.65 15.2402 13.44 16.4102 10.48C18.8102 4.39004 25.7202 1.39004 31.8102 3.79004C37.9002 6.19004 40.9002 13.1 38.5002 19.19L38.5102 19.22Z" fill="#2D3843"/>
</g>
<defs>
<clipPath id="clip0_2051_3677">
<rect width="42.33" height="41.56" fill="white"/>
</clipPath>
</defs>
</svg>
