<svg width="42" height="42" viewBox="0 0 42 42" fill="none" xmlns="http://www.w3.org/2000/svg">
<path d="M39.8915 0H33.9515C33.1015 0 32.4215 0.69 32.4215 1.53C32.4215 2.37 33.1015 3.05 33.9515 3.05H36.2015L34.2416 5.02C33.6815 4.67 33.0915 4.39 32.4815 4.17C31.9115 3.96 31.3115 3.81 30.7015 3.73C30.5615 3.71 30.4016 3.69 30.2416 3.67C29.9316 3.64 29.6215 3.63 29.3115 3.63C26.8115 3.63 24.4715 4.6 22.7015 6.37L20.8715 8.2L19.0515 6.37C17.2815 4.59 14.9315 3.63 12.4315 3.63C9.93154 3.63 7.57155 4.6 5.80155 6.37C2.16155 10.03 2.16155 15.98 5.80155 19.64L11.8315 25.72L12.4916 26.39H7.44155C7.04155 26.39 6.66155 26.54 6.38155 26.82L0.461553 32.64C0.0115528 33.08 -0.118453 33.73 0.111547 34.31C0.341547 34.89 0.90155 35.27 1.52155 35.27H6.28154V40.14C6.28154 40.77 6.66154 41.33 7.23154 41.57C7.42154 41.64 7.61154 41.68 7.81154 41.68C8.21154 41.68 8.61154 41.52 8.90154 41.22L14.7116 35.29C14.9916 35 15.1415 34.61 15.1415 34.21V29.07L19.7515 33.71C20.0415 34.01 20.4315 34.17 20.8415 34.17H20.8816C21.2716 34.16 21.6516 34 21.9116 33.73L35.9515 19.65C36.4115 19.19 36.8115 18.69 37.1515 18.17C37.4915 17.66 37.7815 17.1 38.0115 16.55C38.9215 14.29 38.9215 11.74 38.0115 9.48C37.7915 8.92 37.5015 8.37 37.1515 7.86C36.9715 7.58 36.7715 7.32 36.5615 7.06L38.3715 5.25V7.7C38.3715 8.54 39.0016 9.31 39.8416 9.35C40.7216 9.38 41.4415 8.69 41.4415 7.83V1.53C41.4415 0.69 40.7516 0 39.9016 0H39.8915ZM12.0815 33.58L9.33155 36.39V32.19H5.26154L8.06154 29.43H12.0815V33.58ZM34.9015 10.06H34.9115C35.1015 10.44 35.2516 10.82 35.3516 11.2C36.0116 13.34 35.4715 15.78 33.7815 17.48L32.1715 19.09L20.8615 30.41L20.8215 30.45L15.0515 24.63L7.95154 17.47C5.49154 15 5.49154 10.98 7.95154 8.53C9.15154 7.33 10.7315 6.67 12.4215 6.67C14.1115 6.67 15.6916 7.33 16.8816 8.53L19.7915 11.44C20.0815 11.73 20.4715 11.9 20.8715 11.9C21.2715 11.9 21.6615 11.73 21.9515 11.44H21.9616L24.8715 8.53C26.0615 7.33 27.6415 6.67 29.3115 6.67H29.3215C29.5215 6.67 29.7315 6.68 29.9315 6.7C30.1215 6.71 30.3016 6.74 30.4916 6.78C30.6716 6.81 30.8315 6.85 31.0115 6.9C31.1215 6.92 31.2215 6.96 31.3315 7C31.5015 7.06 31.6515 7.11 31.8215 7.19C31.8815 7.21 31.9316 7.25 31.9916 7.27L28.7315 10.55C28.1315 11.15 28.1415 12.13 28.7515 12.72C29.3515 13.3 30.3015 13.29 30.8915 12.7L34.3815 9.21C34.5816 9.48 34.7615 9.75 34.9115 10.04L34.9015 10.06Z" fill="#2D3843"/>
</svg>
