<svg width="53" height="39" viewBox="0 0 53 39" fill="none" xmlns="http://www.w3.org/2000/svg">
<path d="M52.773 27.41C51.893 22.47 48.603 18.53 44.263 16.72C46.203 15.13 47.453 12.69 47.453 9.95996C47.453 5.16996 43.623 1.27996 38.923 1.27996C34.223 1.27996 30.393 5.17996 30.393 9.95996C30.393 12.69 31.633 15.12 33.573 16.71C31.013 17.78 28.803 19.6 27.233 21.99C26.083 21.22 24.843 20.57 23.533 20.09C26.283 18.14 28.093 14.9 28.093 11.24C28.093 5.29996 23.343 0.459961 17.513 0.459961C11.683 0.459961 6.93304 5.30996 6.93304 11.25C6.93304 14.91 8.74304 18.15 11.493 20.1C5.68304 22.23 1.22304 27.38 0.0630421 33.87C-0.146958 35.05 0.173042 36.26 0.943042 37.18C1.70304 38.09 2.82304 38.61 4.00304 38.61H31.033C32.213 38.61 33.323 38.09 34.093 37.18C34.863 36.26 35.183 35.05 34.973 33.87C34.823 33.05 34.613 32.25 34.363 31.48H49.393C50.403 31.48 51.363 31.03 52.023 30.25C52.683 29.46 52.963 28.43 52.783 27.41H52.773ZM33.403 9.95996C33.403 6.82996 35.883 4.27996 38.933 4.27996C41.983 4.27996 44.463 6.82996 44.463 9.95996C44.463 13.09 41.983 15.64 38.933 15.64C35.883 15.64 33.403 13.09 33.403 9.95996ZM9.93304 11.25C9.93304 6.95996 13.333 3.46996 17.513 3.46996C21.693 3.46996 25.093 6.95996 25.093 11.25C25.093 15.54 21.693 19.03 17.513 19.03C13.333 19.03 9.93304 15.54 9.93304 11.25ZM31.793 35.25C31.683 35.38 31.433 35.61 31.033 35.61H4.00304C3.60304 35.61 3.36304 35.38 3.24304 35.25C3.12304 35.11 2.94304 34.81 3.01304 34.39C4.28304 27.22 10.383 22.02 17.513 22.02C23.283 22.02 28.383 25.44 30.793 30.54C30.793 30.56 30.813 30.59 30.823 30.61C31.373 31.79 31.773 33.06 32.013 34.39C32.083 34.81 31.903 35.11 31.783 35.25H31.793ZM49.713 28.32C49.663 28.38 49.553 28.48 49.383 28.48H33.093C32.173 26.75 30.993 25.21 29.603 23.89C31.623 20.63 35.093 18.64 38.913 18.64C44.263 18.64 48.843 22.55 49.803 27.94C49.833 28.13 49.753 28.26 49.703 28.33L49.713 28.32Z" fill="#2D3843"/>
</svg>
